<svg xmlns="http://www.w3.org/2000/svg" width="19" height="15" viewBox="0 0 19 15">
  <path id="envelope-Light_1_" d="M556,569.5H546a4.505,4.505,0,0,0-4.5,4.5v6a4.505,4.505,0,0,0,4.5,4.5h10a4.505,4.505,0,0,0,4.5-4.5v-6A4.5,4.5,0,0,0,556,569.5Zm-10,1h10a3.494,3.494,0,0,1,3.3,2.369l-6.354,4.236a3.492,3.492,0,0,1-3.883,0l-6.354-4.236A3.49,3.49,0,0,1,546,570.5Zm13.5,9.5a3.5,3.5,0,0,1-3.5,3.5H546a3.5,3.5,0,0,1-3.5-3.5v-6c0-.021.006-.041.006-.062l6,4a4.488,4.488,0,0,0,4.992,0l6-4c0,.021.006.04.006.062v6Z" transform="translate(-541.5 -569.5)" fill="#272829"/>
</svg>
