<svg xmlns="http://www.w3.org/2000/svg" width="19" height="15" viewBox="0 0 19 15">
  <path id="credit-card-Light_1_" d="M460,425.5H450a4.506,4.506,0,0,0-4.5,4.5v6a4.506,4.506,0,0,0,4.5,4.5h10a4.506,4.506,0,0,0,4.5-4.5v-6A4.5,4.5,0,0,0,460,425.5Zm-10,1h10a3.5,3.5,0,0,1,3.5,3.5v.5h-17V430A3.5,3.5,0,0,1,450,426.5Zm10,13H450a3.5,3.5,0,0,1-3.5-3.5v-4.5h17V436A3.5,3.5,0,0,1,460,439.5Zm-6.5-3.5a.5.5,0,0,1-.5.5h-3a.5.5,0,0,1,0-1h3A.5.5,0,0,1,453.5,436Z" transform="translate(-445.5 -425.5)" fill="#1d6abe"/>
</svg>
