<svg xmlns="http://www.w3.org/2000/svg" width="19.141" height="17.837" viewBox="0 0 19.141 17.837">
  <g id="package-_1_" transform="translate(0 494.625)">
    <path id="Path_75856" data-name="Path 75856" d="M51.71-494.606a.919.919,0,0,0-.639.508c-.067.142-.071.366-.071,4.752v4.6l.086.078a.267.267,0,0,0,.366.011l.09-.071.011-4.576.007-4.579.1-.09.1-.09,2.837-.011,2.837-.008v1.993c0,2.206,0,2.206.236,2.449a1.285,1.285,0,0,0,.269.206c.146.082.183.082,1.645.082a9.212,9.212,0,0,0,1.637-.052.918.918,0,0,0,.49-.452c.075-.164.079-.232.09-2.2l.011-2.026h2.766c2.953,0,2.961,0,3.058.179.03.056.041,2.067.041,6.845v6.766l-.09.1-.09.1-1.929.019c-1.75.019-1.933.026-1.989.082a.286.286,0,0,0,.019.378l.082.082h1.951c1.944,0,1.951,0,2.1-.082a1.027,1.027,0,0,0,.456-.531c.034-.1.045-1.9.045-6.961v-6.819l-.09-.187a.884.884,0,0,0-.452-.456c-.142-.064-.523-.067-8-.071C55.374-494.628,51.781-494.621,51.71-494.606Zm9.525,2.434c.007,1.3,0,1.933-.03,2.03-.071.25-.108.254-1.664.243-1.361-.011-1.361-.011-1.447-.1l-.086-.086-.011-2-.011-2,1.619.008,1.619.011Z" transform="translate(-49.093 0)" fill="#b5b5b5"/>
    <path id="Path_75857" data-name="Path 75857" d="M8.281-281.676c-.06.011-.879.408-1.813.879l-1.7.864-.879.71c-.482.389-.908.736-.946.766-.06.056-.075.049-.179-.078-.224-.273-.329-.3-1.178-.318-1.05-.022-1.293.06-1.5.5l-.09.187v2.729c0,1.88.015,2.774.041,2.879a1,1,0,0,0,.538.538,10.231,10.231,0,0,0,1.791,0,1.057,1.057,0,0,0,.49-.411c.015-.037.045-.071.075-.071s.452.157.942.348l.89.344h6.841l.25-.123a1.076,1.076,0,0,0,.572-1.316,1.407,1.407,0,0,1-.056-.187.689.689,0,0,1,.273-.045,1,1,0,0,0,.729-.333,1.118,1.118,0,0,0,.25-1.107.914.914,0,0,1-.056-.161.444.444,0,0,1,.209-.049A1.1,1.1,0,0,0,14.441-277a1.151,1.151,0,0,0-.983-.325,1.279,1.279,0,0,1-.411-.034,1.255,1.255,0,0,1,.056-.191,1.1,1.1,0,0,0-.609-1.338l-.213-.1-1.974-.019-1.974-.019.49-.258a2.822,2.822,0,0,0,.606-.393A1.224,1.224,0,0,0,9.634-281a1.344,1.344,0,0,0-.617-.6A1.55,1.55,0,0,0,8.281-281.676Zm.475.572a.69.69,0,0,1,.43.7,1.016,1.016,0,0,1-.116.277c-.086.127-.221.206-1.144.669a8.622,8.622,0,0,0-1.084.594.325.325,0,0,0,.015.325c.052.067.135.071,2.707.09,2.621.019,2.658.019,2.763.1a.529.529,0,0,1-.026.938c-.161.082-.194.086-1.357.086a10.631,10.631,0,0,0-1.26.037.282.282,0,0,0-.1.34c.09.179.1.183,2.228.183,1.929,0,2,0,2.123.075a.536.536,0,0,1-.03.942,8.463,8.463,0,0,1-2.12.067,19.735,19.735,0,0,0-2.082.041.281.281,0,0,0-.03.467,7.511,7.511,0,0,0,1.54.052c1.645,0,1.649,0,1.821.258a.543.543,0,0,1-.12.714l-.1.093-1.544.019c-1.45.019-1.548.022-1.622.09a.313.313,0,0,0-.026.381c.049.067.12.071.983.09.841.019.938.026,1.054.094a.544.544,0,0,1,.007.923l-.135.086-3.282.011-3.279.011-1.009-.381-1.009-.381.007-2.322.011-2.318,1.047-.852,1.047-.852,1.671-.841c.983-.493,1.716-.841,1.776-.841A1.239,1.239,0,0,1,8.755-281.1ZM2.314-278.21c.079.071.079.075.079,2.793v2.722l-.1.075c-.093.075-.15.079-.826.079-.722,0-.725,0-.815-.093l-.093-.09v-2.688a23.5,23.5,0,0,1,.049-2.744c.1-.131.187-.142.908-.135C2.165-278.281,2.243-278.274,2.314-278.21Z" transform="translate(0 -204.975)" fill="#b5b5b5"/>
  </g>
</svg>
