<svg xmlns="http://www.w3.org/2000/svg" width="18.378" height="18.379" viewBox="0 0 18.378 18.379">
  <path id="globe-Light_1_" d="M559.349,357.627a9.126,9.126,0,0,0-7.343-6.036,9.525,9.525,0,0,0-2.633,0,9.125,9.125,0,0,0-7.341,6.031,9.107,9.107,0,0,0,0,6.129,9.126,9.126,0,0,0,7.343,6.036,9.47,9.47,0,0,0,2.632,0,9.125,9.125,0,0,0,7.341-6.031,9.115,9.115,0,0,0,0-6.129Zm-1.189-.322h-3.5a15.5,15.5,0,0,0-1.732-4.529A8.142,8.142,0,0,1,558.16,357.3Zm-4.085,3.385a14.7,14.7,0,0,1-.215,2.419h-6.342a13.721,13.721,0,0,1,0-4.837h6.343A14.745,14.745,0,0,1,554.075,360.689Zm-2.422-8.155a14.586,14.586,0,0,1,2.014,4.771h-5.954a14.588,14.588,0,0,1,2.013-4.771,6.988,6.988,0,0,1,1.927,0Zm-3.2.242a15.5,15.5,0,0,0-1.733,4.529h-3.5A8.137,8.137,0,0,1,548.452,352.776Zm-5.61,5.5h3.7a14.327,14.327,0,0,0,0,4.837h-3.7a8,8,0,0,1,0-4.837Zm.379,5.8h3.5a15.5,15.5,0,0,0,1.732,4.526A8.135,8.135,0,0,1,543.221,364.076Zm6.505,4.768a14.586,14.586,0,0,1-2.013-4.768h5.953a14.584,14.584,0,0,1-2.013,4.768A8.441,8.441,0,0,1,549.726,368.844Zm3.2-.241a15.5,15.5,0,0,0,1.732-4.526h3.5A8.141,8.141,0,0,1,552.927,368.6Zm5.609-5.494h-3.7a14.327,14.327,0,0,0,0-4.837h3.7a7.987,7.987,0,0,1,0,4.837Z" transform="translate(-541.5 -351.5)" fill="#272829"/>
</svg>
