<svg xmlns="http://www.w3.org/2000/svg" width="25.891" height="17.837" viewBox="0 0 25.891 17.837">
  <g id="Group_105740" data-name="Group 105740" transform="translate(3802.267 5152.5)">
    <path id="Path_75404" data-name="Path 75404" d="M476.512,229.308,473.7,226.5h-1.874v4.686h4.686Zm-.854,1.021H472.68v-2.978h.667l2.311,2.311Z" transform="translate(-4255.076 -5372.982)" fill="#b5b5b5"/>
    <path id="Path_75403" data-name="Path 75403" d="M107,124.57h-3.99v.854H107v5.939h1.452a2.536,2.536,0,0,0,5.016,0h8.2a2.536,2.536,0,0,0,5.017,0h1.452v-7.776l-4.022-4.075H120.02v-3.825H107V119.1h-2.79v.854H107v1.882h-4.759v.854H107v1.882Zm3.96,8.1a1.725,1.725,0,1,1,1.7-1.725A1.716,1.716,0,0,1,110.964,132.67Zm13.213,0a1.725,1.725,0,1,1,1.7-1.725A1.716,1.716,0,0,1,124.177,132.67Zm-4.156-12.3h3.745l3.528,3.575v6.568h-.612a2.536,2.536,0,0,0-5.011,0h-8.2a2.536,2.536,0,0,0-5.011,0h-.612v-2.493h12.174v-7.65Zm-12.174,1.469v-1.882h2.668V119.1h-2.668v-2.558h11.332v10.621H107.846v-1.738h3.268v-.854h-3.268v-1.882h1.468v-.854Z" transform="translate(-3904.512 -5268.187)" fill="#b5b5b5"/>
  </g>
</svg>
