<svg xmlns="http://www.w3.org/2000/svg" width="17.342" height="17.342" viewBox="0 0 17.342 17.342">
  <path id="package-Light_1_" d="M604.3,425.727l-4.015-1.784a5.284,5.284,0,0,0-4.229,0l-4.015,1.784a4.065,4.065,0,0,0-2.542,3.683v5.523a4.064,4.064,0,0,0,2.542,3.683l4.016,1.784a5.234,5.234,0,0,0,2.1.44c.006,0,.012,0,.017,0s.012,0,.017,0a5.231,5.231,0,0,0,2.1-.44l4.016-1.784a4.065,4.065,0,0,0,2.542-3.683v-5.523A4.061,4.061,0,0,0,604.3,425.727Zm-7.873-.949a4.355,4.355,0,0,1,3.487,0l4.015,1.784a3.627,3.627,0,0,1,1.055.713l-2.708,1.2-7.089-3.149Zm-4.016,1.784,1.651-.733,7.09,3.149-1.791.8a3.076,3.076,0,0,1-2.381,0l-5.624-2.5A3.635,3.635,0,0,1,592.413,426.562Zm0,11.22a3.163,3.163,0,0,1-2-2.849v-5.523a2.87,2.87,0,0,1,.37-1.393l5.828,2.591a3.761,3.761,0,0,0,1.1.276v9a4.252,4.252,0,0,1-1.286-.317Zm13.518-2.849a3.164,3.164,0,0,1-2,2.849l-4.016,1.784a4.2,4.2,0,0,1-1.286.317v-9a3.81,3.81,0,0,0,1.1-.276l5.828-2.591a2.87,2.87,0,0,1,.37,1.393v5.523Z" transform="translate(-589.501 -423.502)"/>
</svg>
