<svg xmlns="http://www.w3.org/2000/svg" width="15.343" height="19" viewBox="0 0 15.343 19">
  <path id="lock-Light_1_" d="M699.775,286.776V284a4.6,4.6,0,0,0-9.206,0v2.776A4.5,4.5,0,0,0,687.5,291v3a4.558,4.558,0,0,0,4.6,4.5h6.137a4.558,4.558,0,0,0,4.6-4.5v-3A4.5,4.5,0,0,0,699.775,286.776ZM691.592,284a3.581,3.581,0,0,1,7.16,0v2.551a4.536,4.536,0,0,0-.511-.051H692.1a4.543,4.543,0,0,0-.511.051Zm10.229,10a3.545,3.545,0,0,1-3.58,3.5H692.1a3.545,3.545,0,0,1-3.58-3.5v-3a3.545,3.545,0,0,1,3.58-3.5h6.137a3.545,3.545,0,0,1,3.58,3.5Zm-6.137-2v2a.512.512,0,0,1-1.023,0v-2a.512.512,0,0,1,1.023,0Z" transform="translate(-687.5 -279.5)"/>
</svg>
