<svg xmlns="http://www.w3.org/2000/svg" width="16.756" height="20.882" viewBox="0 0 16.756 20.882">
  <g id="group_3_" data-name="group (3)" transform="translate(-136.975 -107.825)">
    <g id="Group_99854" data-name="Group 99854" transform="translate(137.4 108.25)">
      <path id="Path_71063" data-name="Path 71063" d="M141.387,112.209a3.959,3.959,0,1,1,4.188,3.952h-.458A3.965,3.965,0,0,1,141.387,112.209ZM153.306,125.7a2.583,2.583,0,0,1-2.579,2.579H139.979A2.583,2.583,0,0,1,137.4,125.7v-.471a7.965,7.965,0,0,1,7.717-7.953c.076.007.159.007.236.007s.159,0,.236-.007a7.965,7.965,0,0,1,7.717,7.953Z" transform="translate(-137.4 -108.25)" fill="none" stroke="#000" stroke-width="0.85"/>
    </g>
  </g>
</svg>
