<svg xmlns="http://www.w3.org/2000/svg" width="16.756" height="20.882" viewBox="0 0 16.756 20.882">
  <g id="Group_105310" data-name="Group 105310" transform="translate(-19.575 -622.764)">
    <g id="group_3_" data-name="group (3)" transform="translate(-117.4 514.939)">
      <g id="Group_99854" data-name="Group 99854" transform="translate(137.4 108.25)">
        <path id="Path_71063" data-name="Path 71063" d="M141.387,112.209a3.959,3.959,0,1,1,4.188,3.952h-.458A3.965,3.965,0,0,1,141.387,112.209ZM153.306,125.7a2.583,2.583,0,0,1-2.579,2.579H139.979A2.583,2.583,0,0,1,137.4,125.7v-.471a7.965,7.965,0,0,1,7.717-7.953c.076.007.159.007.236.007s.159,0,.236-.007a7.965,7.965,0,0,1,7.717,7.953Z" transform="translate(-137.4 -108.25)" fill="none" stroke="#000" stroke-width="0.85"/>
      </g>
    </g>
    <g id="Group_105309" data-name="Group 105309">
      <path id="Stroke_3" data-name="Stroke 3" d="M3.095,1.548A1.547,1.547,0,1,1,1.547,0,1.548,1.548,0,0,1,3.095,1.548Z" transform="translate(23.765 636.6)" fill="none" stroke="#191616" stroke-linecap="round" stroke-linejoin="round" stroke-miterlimit="10" stroke-width="0.75"/>
      <path id="Stroke_5" data-name="Stroke 5" d="M0,0H5.28V1.548" transform="translate(26.86 638.148)" fill="none" stroke="#191616" stroke-linecap="round" stroke-linejoin="round" stroke-miterlimit="10" stroke-width="0.75"/>
      <path id="Stroke_7" data-name="Stroke 7" d="M.5,1.548V0" transform="translate(29.276 638.148)" fill="none" stroke="#191616" stroke-linecap="round" stroke-linejoin="round" stroke-miterlimit="10" stroke-width="0.75"/>
    </g>
  </g>
</svg>
