<svg xmlns="http://www.w3.org/2000/svg" width="18.998" height="17.999" viewBox="0 0 18.998 17.999">
  <path id="star-Light_1_" d="M320.411,431.25a1.842,1.842,0,0,0-1.507-1.264l-4.309-.617-1.926-3.845h0a1.871,1.871,0,0,0-3.336,0l-1.926,3.845-4.309.617a1.842,1.842,0,0,0-1.507,1.264,1.818,1.818,0,0,0,.477,1.881l3.114,2.99-.735,4.221a1.822,1.822,0,0,0,.726,1.792,1.865,1.865,0,0,0,1.973.152l3.856-2,3.856,2a1.869,1.869,0,0,0,1.973-.152,1.823,1.823,0,0,0,.726-1.792l-.735-4.221,3.114-2.991A1.822,1.822,0,0,0,320.411,431.25Zm-1.17,1.159-3.306,3.175a.5.5,0,0,0-.146.447l.78,4.483a.819.819,0,0,1-.332.814.859.859,0,0,1-.921.071l-4.086-2.117a.491.491,0,0,0-.23-.056.5.5,0,0,0-.23.056l-4.086,2.117a.859.859,0,0,1-.921-.071.819.819,0,0,1-.332-.814l.78-4.483a.5.5,0,0,0-.146-.447l-3.306-3.174a.816.816,0,0,1-.218-.853.841.841,0,0,1,.7-.581l4.568-.654a.5.5,0,0,0,.376-.271l2.043-4.08a.9.9,0,0,1,1.548,0h0l2.043,4.079a.5.5,0,0,0,.376.271l4.568.654a.838.838,0,0,1,.7.581A.809.809,0,0,1,319.241,432.409Z" transform="translate(-301.502 -424.5)" fill="#272829"/>
</svg>
