<svg xmlns="http://www.w3.org/2000/svg" width="16.552" height="19.365" viewBox="0 0 16.552 19.365">
  <g id="Paper" transform="translate(-0.25 -0.25)">
    <path id="Stroke_1" data-name="Stroke 1" d="M10.487,0H3.834A3.82,3.82,0,0,0,0,3.729V14.442a3.827,3.827,0,0,0,3.834,3.911h7.989a3.887,3.887,0,0,0,3.729-3.911V5.276Z" transform="translate(0.75 0.762)" fill="none" stroke="#272829" stroke-linecap="round" stroke-linejoin="round" stroke-miterlimit="10" stroke-width="1"/>
    <path id="Stroke_3" data-name="Stroke 3" d="M0,0V2.909A2.574,2.574,0,0,0,2.568,5.484c1.317,0,2.664,0,2.755,0" transform="translate(10.974 0.75)" fill="none" stroke="#272829" stroke-linecap="round" stroke-linejoin="round" stroke-miterlimit="10" stroke-width="1"/>
    <path id="Stroke_5" data-name="Stroke 5" d="M5.4.5H0" transform="translate(5.387 13.058)" fill="none" stroke="#272829" stroke-linecap="round" stroke-linejoin="round" stroke-miterlimit="10" stroke-width="1"/>
    <path id="Stroke_7" data-name="Stroke 7" d="M3.356.5H0" transform="translate(5.386 8.106)" fill="none" stroke="#272829" stroke-linecap="round" stroke-linejoin="round" stroke-miterlimit="10" stroke-width="1"/>
  </g>
</svg>
