<svg xmlns="http://www.w3.org/2000/svg" width="35.668" height="35.668" viewBox="0 0 35.668 35.668">
  <g id="twitter" transform="translate(0.125 0.446)">
    <rect id="Rectangle_1997" data-name="Rectangle 1997" width="35.668" height="35.668" rx="17.834" transform="translate(-0.125 -0.446)" fill="#62b2f5"/>
    <g id="twitter_2_" data-name="twitter (2)" transform="translate(10.433 11.262)">
      <g id="Group_1290" data-name="Group 1290">
        <path id="Path_4356" data-name="Path 4356" d="M15.082,49.451a6.446,6.446,0,0,1-1.782.488,3.074,3.074,0,0,0,1.36-1.709,6.179,6.179,0,0,1-1.961.748,3.092,3.092,0,0,0-5.348,2.114,3.183,3.183,0,0,0,.072.705A8.751,8.751,0,0,1,1.05,48.564,3.093,3.093,0,0,0,2,52.7a3.053,3.053,0,0,1-1.4-.381v.034A3.106,3.106,0,0,0,3.08,55.387a3.086,3.086,0,0,1-.811.1,2.734,2.734,0,0,1-.585-.053A3.121,3.121,0,0,0,4.573,57.59,6.212,6.212,0,0,1,.74,58.909,5.792,5.792,0,0,1,0,58.866a8.7,8.7,0,0,0,4.743,1.388,8.739,8.739,0,0,0,8.8-8.8c0-.137,0-.269-.011-.4A6.168,6.168,0,0,0,15.082,49.451Z" transform="translate(0 -48)" fill="#fff"/>
      </g>
    </g>
  </g>
</svg>
